# xmcd
# 
# Track frame offsets:
#     183
#     65968
#     91205
#     123208
#     188710
#     214635
# 
# Disc length: 3597
# 
# Revision: 16
# Processed by: cddbd v1.5.2PL0 Copyright (c) Steve Scherf et al.
# Submitted via: fre:ac v1.0.17
# 
DISCID=500e0b06
DTITLE=Mozart - The Great Piano Concertos Disc 2
DYEAR=1993
DGENRE=Classique
TTITLE0=Piano Concerto N°21 in C major K.467 ''Elvira Madigan'' - I. Allegro maestoso
TTITLE1=Piano Concerto N°21 in C major K.467 ''Elvira Madigan'' - II. Andante
TTITLE2=Piano Concerto N°21 in C major K.467 ''Elvira Madigan'' - III. Allegro vivo
TTITLE3=Piano Concerto N°26 in D major K.537 ''Coronation Concerto'' - I. Allegro
TTITLE4=Piano Concerto N°26 in D major K.537 ''Coronation Concerto'' - II. Larghetto
TTITLE5=Piano Concerto N°26 in D major K.537 ''Coronation Concerto'' - III. Allegretto
EXTD=YEAR: 1993
EXTT0=
EXTT1=
EXTT2=
EXTT3=
EXTT4=
EXTT5=
PLAYORDER=
